<svg width="187" height="40" viewBox="0 0 187 40" fill="none" xmlns="http://www.w3.org/2000/svg">
<rect y="7.91824" width="31.8662" height="32.2939" rx="3" transform="rotate(-14.1468 0 7.91824)" fill="#8B3639"/>
<path d="M15.5927 3.31519L18.5927 2.3152L6.59274 36.8152L4.59274 30.3152L15.5927 3.31519Z" fill="white"/>
<path d="M26.5927 0.815182L29.0928 0.815161L28.5927 34.3152L24.0927 36.3152L26.5927 0.815182Z" fill="white"/>
<line x1="6.86039" y1="29.3517" x2="24.8604" y2="34.3517" stroke="white" stroke-width="2"/>
<line x1="8.83362" y1="23.448" x2="26.8336" y2="28.448" stroke="white" stroke-width="1.8"/>
<line x1="11.1875" y1="18.2223" x2="27.7802" y2="22.2223" stroke="white" stroke-width="1.6"/>
<line x1="13.7868" y1="12.5391" x2="25.7868" y2="15.5391" stroke="white" stroke-width="1.6"/>
<line x1="14.7625" y1="7.63609" x2="26.7625" y2="10.6361" stroke="white" stroke-width="1.4"/>
<line x1="15.7504" y1="2.68459" x2="27.7504" y2="5.68459" stroke="white" stroke-width="1.3"/>
<path d="M58.3395 14.4531C58.2732 13.8329 57.9938 13.3499 57.5014 13.0043C57.0137 12.6586 56.3793 12.4858 55.598 12.4858C55.0488 12.4858 54.5777 12.5687 54.1847 12.7344C53.7917 12.9001 53.491 13.125 53.2827 13.4091C53.0743 13.6932 52.9678 14.0175 52.9631 14.3821C52.9631 14.6851 53.0317 14.9479 53.169 15.1705C53.3111 15.393 53.5028 15.5824 53.7443 15.7386C53.9858 15.8902 54.2533 16.018 54.5469 16.1222C54.8404 16.2263 55.1364 16.3139 55.4347 16.3849L56.7983 16.7259C57.3475 16.8537 57.8755 17.0265 58.3821 17.2443C58.8935 17.4621 59.3504 17.7367 59.7528 18.0682C60.16 18.3996 60.482 18.7997 60.7188 19.2685C60.9555 19.7372 61.0739 20.2865 61.0739 20.9162C61.0739 21.7685 60.8561 22.5189 60.4205 23.1676C59.9848 23.8116 59.3551 24.3158 58.5312 24.6804C57.7121 25.0402 56.7202 25.2202 55.5554 25.2202C54.4238 25.2202 53.4413 25.045 52.608 24.6946C51.7794 24.3442 51.1307 23.8329 50.6619 23.1605C50.1979 22.4882 49.947 21.669 49.9091 20.7031H52.5014C52.5393 21.2098 52.6955 21.6312 52.9702 21.9673C53.2448 22.3035 53.6023 22.5545 54.0426 22.7202C54.4877 22.8859 54.9848 22.9688 55.5341 22.9688C56.107 22.9688 56.6089 22.8835 57.0398 22.7131C57.4754 22.5379 57.8163 22.2964 58.0625 21.9886C58.3087 21.6761 58.4342 21.3116 58.4389 20.8949C58.4342 20.5161 58.3229 20.2036 58.1051 19.9574C57.8873 19.7064 57.5819 19.4981 57.1889 19.3324C56.8007 19.1619 56.3461 19.0104 55.8253 18.8778L54.1705 18.4517C52.9725 18.1439 52.0256 17.6776 51.3295 17.0526C50.6383 16.4228 50.2926 15.5871 50.2926 14.5455C50.2926 13.6884 50.5246 12.938 50.9886 12.294C51.4574 11.6501 52.0942 11.1506 52.8991 10.7955C53.7041 10.4356 54.6155 10.2557 55.6335 10.2557C56.6657 10.2557 57.5701 10.4356 58.3466 10.7955C59.1278 11.1506 59.741 11.6454 60.1861 12.2798C60.6312 12.9096 60.8608 13.634 60.875 14.4531H58.3395ZM68.1567 14.0909V16.0795H61.8854V14.0909H68.1567ZM63.4337 11.4773H66.0048V21.7188C66.0048 22.0644 66.0568 22.3295 66.161 22.5142C66.2699 22.6941 66.412 22.8172 66.5871 22.8835C66.7623 22.9498 66.9565 22.983 67.1695 22.983C67.3305 22.983 67.4773 22.9711 67.6099 22.9474C67.7472 22.9238 67.8513 22.9025 67.9224 22.8835L68.3556 24.8935C68.2183 24.9408 68.0218 24.9929 67.7661 25.0497C67.5152 25.1065 67.2074 25.1397 66.8428 25.1491C66.1989 25.1681 65.6189 25.071 65.1028 24.858C64.5867 24.6402 64.1771 24.304 63.8741 23.8494C63.5758 23.3949 63.429 22.8267 63.4337 22.1449V11.4773ZM69.707 25V14.0909H72.278V25H69.707ZM70.9996 12.5426C70.5924 12.5426 70.242 12.4077 69.9484 12.1378C69.6549 11.8632 69.5081 11.5341 69.5081 11.1506C69.5081 10.7623 69.6549 10.4332 69.9484 10.1634C70.242 9.88873 70.5924 9.75142 70.9996 9.75142C71.4115 9.75142 71.7619 9.88873 72.0507 10.1634C72.3443 10.4332 72.4911 10.7623 72.4911 11.1506C72.4911 11.5341 72.3443 11.8632 72.0507 12.1378C71.7619 12.4077 71.4115 12.5426 70.9996 12.5426ZM79.0661 29.3182C78.1428 29.3182 77.3497 29.1927 76.6869 28.9418C76.024 28.6955 75.4913 28.3641 75.0889 27.9474C74.6864 27.5308 74.407 27.0691 74.2508 26.5625L76.5661 26.0014C76.6703 26.2145 76.8218 26.4252 77.0207 26.6335C77.2195 26.8466 77.4871 27.0218 77.8232 27.1591C78.1641 27.3011 78.5926 27.3722 79.1087 27.3722C79.8379 27.3722 80.4416 27.1946 80.9198 26.8395C81.398 26.4891 81.6371 25.9115 81.6371 25.1065V23.0398H81.5093C81.3767 23.3049 81.1826 23.5772 80.9269 23.8565C80.676 24.1359 80.3422 24.3703 79.9255 24.5597C79.5136 24.7491 78.9951 24.8438 78.3701 24.8438C77.532 24.8438 76.7721 24.6473 76.0903 24.2543C75.4132 23.8565 74.8734 23.2647 74.471 22.4787C74.0732 21.688 73.8744 20.6984 73.8744 19.5099C73.8744 18.312 74.0732 17.3011 74.471 16.4773C74.8734 15.6487 75.4156 15.0213 76.0974 14.5952C76.7792 14.1643 77.5391 13.9489 78.3772 13.9489C79.0164 13.9489 79.542 14.0578 79.9539 14.2756C80.3706 14.4886 80.702 14.7467 80.9482 15.0497C81.1944 15.348 81.3815 15.6297 81.5093 15.8949H81.6514V14.0909H84.1869V25.1776C84.1869 26.1103 83.9643 26.8821 83.5192 27.4929C83.0742 28.1037 82.4657 28.5606 81.694 28.8636C80.9222 29.1667 80.0462 29.3182 79.0661 29.3182ZM79.0874 22.8267C79.6319 22.8267 80.096 22.6941 80.4795 22.429C80.863 22.1638 81.1542 21.7827 81.3531 21.2855C81.5519 20.7884 81.6514 20.1918 81.6514 19.4957C81.6514 18.8092 81.5519 18.2079 81.3531 17.6918C81.1589 17.1757 80.8701 16.7756 80.4866 16.4915C80.1078 16.2027 79.6414 16.0582 79.0874 16.0582C78.5145 16.0582 78.0363 16.2074 77.6528 16.5057C77.2692 16.804 76.9804 17.2135 76.7863 17.7344C76.5922 18.2505 76.4951 18.8376 76.4951 19.4957C76.4951 20.1634 76.5922 20.7481 76.7863 21.25C76.9852 21.7472 77.2764 22.1354 77.6599 22.4148C78.0481 22.6894 78.524 22.8267 79.0874 22.8267ZM91.0513 25.2131C89.9576 25.2131 89.013 24.9858 88.2175 24.5312C87.4268 24.072 86.8184 23.4233 86.3923 22.5852C85.9661 21.7424 85.7531 20.7505 85.7531 19.6094C85.7531 18.4872 85.9661 17.5024 86.3923 16.6548C86.8231 15.8026 87.4245 15.1397 88.1962 14.6662C88.968 14.188 89.8747 13.9489 90.9164 13.9489C91.5888 13.9489 92.2232 14.0578 92.8198 14.2756C93.4211 14.4886 93.9514 14.8201 94.4107 15.2699C94.8747 15.7197 95.2393 16.2926 95.5045 16.9886C95.7696 17.6799 95.9022 18.5038 95.9022 19.4602V20.2486H86.9604V18.5156H93.4377C93.433 18.0232 93.3264 17.5852 93.1181 17.2017C92.9098 16.8134 92.6186 16.508 92.2445 16.2855C91.8752 16.063 91.4443 15.9517 90.9519 15.9517C90.4263 15.9517 89.9647 16.0795 89.567 16.3352C89.1692 16.5862 88.8591 16.9176 88.6366 17.3295C88.4188 17.7367 88.3075 18.1842 88.3028 18.6719V20.1847C88.3028 20.8191 88.4188 21.3636 88.6508 21.8182C88.8828 22.268 89.2071 22.6136 89.6238 22.8551C90.0405 23.0919 90.5281 23.2102 91.0869 23.2102C91.4609 23.2102 91.7995 23.1581 92.1025 23.054C92.4055 22.9451 92.6683 22.7865 92.8908 22.5781C93.1134 22.3698 93.2815 22.1117 93.3951 21.804L95.7957 22.0739C95.6442 22.7083 95.3553 23.2623 94.9292 23.7358C94.5078 24.2045 93.968 24.5691 93.3099 24.8295C92.6517 25.0852 91.8989 25.2131 91.0513 25.2131ZM97.5909 25V10.4545H106.909V12.6634H100.226V16.6122H106.27V18.821H100.226V25H97.5909ZM111.638 25.2202C110.946 25.2202 110.324 25.0971 109.77 24.8509C109.22 24.5999 108.785 24.2306 108.463 23.7429C108.146 23.2552 107.987 22.6539 107.987 21.9389C107.987 21.3234 108.101 20.8144 108.328 20.4119C108.555 20.0095 108.865 19.6875 109.258 19.446C109.651 19.2045 110.094 19.0223 110.586 18.8991C111.084 18.7713 111.597 18.679 112.128 18.6222C112.767 18.5559 113.285 18.4967 113.683 18.4446C114.081 18.3878 114.37 18.3026 114.55 18.1889C114.734 18.0705 114.826 17.8883 114.826 17.642V17.5994C114.826 17.0644 114.668 16.6501 114.351 16.3565C114.033 16.063 113.576 15.9162 112.98 15.9162C112.35 15.9162 111.851 16.0535 111.481 16.3281C111.117 16.6027 110.871 16.9271 110.743 17.3011L108.342 16.9602C108.532 16.2973 108.844 15.7434 109.28 15.2983C109.715 14.8485 110.248 14.5123 110.878 14.2898C111.507 14.0625 112.203 13.9489 112.966 13.9489C113.491 13.9489 114.014 14.0104 114.535 14.1335C115.056 14.2566 115.532 14.4602 115.963 14.7443C116.394 15.0237 116.739 15.4048 117 15.8878C117.265 16.3707 117.398 16.9744 117.398 17.6989V25H114.926V23.5014H114.841C114.684 23.8045 114.464 24.0885 114.18 24.3537C113.901 24.6141 113.548 24.8248 113.122 24.9858C112.701 25.142 112.206 25.2202 111.638 25.2202ZM112.305 23.331C112.821 23.331 113.269 23.2292 113.648 23.0256C114.026 22.8172 114.317 22.5426 114.521 22.2017C114.729 21.8608 114.834 21.4891 114.834 21.0866V19.8011C114.753 19.8674 114.616 19.929 114.422 19.9858C114.232 20.0426 114.019 20.0923 113.782 20.1349C113.546 20.1776 113.311 20.2154 113.079 20.2486C112.847 20.2817 112.646 20.3101 112.476 20.3338C112.092 20.3859 111.749 20.4711 111.446 20.5895C111.143 20.7079 110.904 20.8736 110.728 21.0866C110.553 21.295 110.466 21.5649 110.466 21.8963C110.466 22.3698 110.639 22.7273 110.984 22.9688C111.33 23.2102 111.77 23.331 112.305 23.331ZM119.496 25V10.4545H122.067V15.8949H122.174C122.307 15.6297 122.494 15.348 122.735 15.0497C122.976 14.7467 123.303 14.4886 123.715 14.2756C124.127 14.0578 124.653 13.9489 125.292 13.9489C126.135 13.9489 126.895 14.1643 127.572 14.5952C128.253 15.0213 128.793 15.6534 129.191 16.4915C129.593 17.3248 129.795 18.3475 129.795 19.5597C129.795 20.7576 129.598 21.7756 129.205 22.6136C128.812 23.4517 128.277 24.0909 127.6 24.5312C126.923 24.9716 126.156 25.1918 125.299 25.1918C124.674 25.1918 124.155 25.0876 123.744 24.8793C123.332 24.6709 123 24.42 122.749 24.1264C122.503 23.8281 122.311 23.5464 122.174 23.2812H122.025V25H119.496ZM122.018 19.5455C122.018 20.2509 122.117 20.8688 122.316 21.3991C122.52 21.9295 122.811 22.3437 123.19 22.642C123.573 22.9356 124.037 23.0824 124.582 23.0824C125.15 23.0824 125.626 22.9309 126.009 22.6278C126.393 22.3201 126.682 21.901 126.876 21.3707C127.075 20.8357 127.174 20.2273 127.174 19.5455C127.174 18.8684 127.077 18.267 126.883 17.7415C126.689 17.2159 126.4 16.804 126.016 16.5057C125.633 16.2074 125.155 16.0582 124.582 16.0582C124.032 16.0582 123.566 16.2027 123.182 16.4915C122.799 16.7803 122.508 17.1851 122.309 17.706C122.115 18.2268 122.018 18.84 122.018 19.5455ZM131.38 25V14.0909H133.873V15.9091H133.987C134.186 15.2794 134.527 14.794 135.01 14.4531C135.497 14.1075 136.054 13.9347 136.679 13.9347C136.821 13.9347 136.979 13.9418 137.155 13.956C137.334 13.9654 137.484 13.982 137.602 14.0057V16.3707C137.493 16.3329 137.32 16.2997 137.084 16.2713C136.852 16.2382 136.627 16.2216 136.409 16.2216C135.94 16.2216 135.519 16.3234 135.145 16.527C134.775 16.7259 134.484 17.0028 134.271 17.358C134.058 17.7131 133.951 18.1226 133.951 18.5866V25H131.38ZM138.71 25V14.0909H141.281V25H138.71ZM140.003 12.5426C139.596 12.5426 139.245 12.4077 138.952 12.1378C138.658 11.8632 138.511 11.5341 138.511 11.1506C138.511 10.7623 138.658 10.4332 138.952 10.1634C139.245 9.88873 139.596 9.75142 140.003 9.75142C140.415 9.75142 140.765 9.88873 141.054 10.1634C141.347 10.4332 141.494 10.7623 141.494 11.1506C141.494 11.5341 141.347 11.8632 141.054 12.1378C140.765 12.4077 140.415 12.5426 140.003 12.5426ZM145.669 21.5767L145.662 18.473H146.074L149.994 14.0909H152.998L148.176 19.4602H147.643L145.669 21.5767ZM143.325 25V10.4545H145.896V25H143.325ZM150.172 25L146.62 20.0355L148.353 18.2244L153.247 25H150.172ZM156.455 21.5767L156.448 18.473H156.86L160.781 14.0909H163.785L158.963 19.4602H158.43L156.455 21.5767ZM154.112 25V10.4545H156.683V25H154.112ZM160.958 25L157.407 20.0355L159.14 18.2244L164.034 25H160.958ZM169.279 25.2131C168.185 25.2131 167.24 24.9858 166.445 24.5312C165.654 24.072 165.046 23.4233 164.62 22.5852C164.193 21.7424 163.98 20.7505 163.98 19.6094C163.98 18.4872 164.193 17.5024 164.62 16.6548C165.05 15.8026 165.652 15.1397 166.424 14.6662C167.195 14.188 168.102 13.9489 169.144 13.9489C169.816 13.9489 170.451 14.0578 171.047 14.2756C171.648 14.4886 172.179 14.8201 172.638 15.2699C173.102 15.7197 173.467 16.2926 173.732 16.9886C173.997 17.6799 174.13 18.5038 174.13 19.4602V20.2486H165.188V18.5156H171.665C171.66 18.0232 171.554 17.5852 171.345 17.2017C171.137 16.8134 170.846 16.508 170.472 16.2855C170.103 16.063 169.672 15.9517 169.179 15.9517C168.654 15.9517 168.192 16.0795 167.794 16.3352C167.397 16.5862 167.086 16.9176 166.864 17.3295C166.646 17.7367 166.535 18.1842 166.53 18.6719V20.1847C166.53 20.8191 166.646 21.3636 166.878 21.8182C167.11 22.268 167.434 22.6136 167.851 22.8551C168.268 23.0919 168.755 23.2102 169.314 23.2102C169.688 23.2102 170.027 23.1581 170.33 23.054C170.633 22.9451 170.896 22.7865 171.118 22.5781C171.341 22.3698 171.509 22.1117 171.622 21.804L174.023 22.0739C173.871 22.7083 173.583 23.2623 173.157 23.7358C172.735 24.2045 172.195 24.5691 171.537 24.8295C170.879 25.0852 170.126 25.2131 169.279 25.2131ZM178.276 18.608V25H175.705V14.0909H178.162V15.9446H178.29C178.541 15.3338 178.941 14.8485 179.49 14.4886C180.044 14.1288 180.728 13.9489 181.543 13.9489C182.296 13.9489 182.951 14.1098 183.51 14.4318C184.073 14.7538 184.509 15.2202 184.817 15.831C185.129 16.4418 185.283 17.1828 185.278 18.054V25H182.707V18.4517C182.707 17.7225 182.518 17.152 182.139 16.7401C181.765 16.3281 181.247 16.1222 180.584 16.1222C180.134 16.1222 179.734 16.2216 179.384 16.4205C179.038 16.6146 178.766 16.8963 178.567 17.2656C178.373 17.6349 178.276 18.0824 178.276 18.608Z" fill="black"/>
</svg>
