<svg width="16" height="16" viewBox="0 0 16 16" fill="none" xmlns="http://www.w3.org/2000/svg">
<path d="M15.117 0H0.883256C0.651823 0.0210424 0.437088 0.129423 0.282698 0.303111C0.128308 0.4768 0.0458512 0.702761 0.0520874 0.935065V15.0649C0.0458512 15.2972 0.128308 15.5232 0.282698 15.6969C0.437088 15.8706 0.651823 15.979 0.883256 16H8.46767V9.76623H6.38975V7.37662H8.46767V5.61039C8.39978 4.84179 8.63247 4.0768 9.11684 3.47618C9.60121 2.87557 10.2995 2.48609 11.0651 2.38961H11.5846C12.2097 2.3724 12.8353 2.40715 13.4547 2.49351V4.67532H12.104C11.0651 4.67532 10.9612 5.19481 10.9612 5.81818V7.37662H13.3508L13.0391 9.76623H10.9612V15.8961H15.0131C15.2454 15.9023 15.4714 15.8199 15.6451 15.6655C15.8188 15.5111 15.9271 15.2964 15.9482 15.0649V0.831169C15.9336 0.615532 15.8414 0.412491 15.6885 0.259665C15.5357 0.106838 15.3327 0.014586 15.117 0Z" fill="white"/>
</svg>
