<svg width="14" height="16" viewBox="0 0 14 16" fill="none" xmlns="http://www.w3.org/2000/svg">
<path d="M6.99964 0C5.33313 0.00189054 3.73542 0.664747 2.55702 1.84315C1.37861 3.02155 0.715758 4.61927 0.713867 6.28578C0.713867 11.6644 6.42821 15.7266 6.67178 15.8966C6.76787 15.9639 6.88233 16 6.99964 16C7.11695 16 7.23142 15.9639 7.3275 15.8966C7.57108 15.7266 13.2854 11.6644 13.2854 6.28578C13.2835 4.61927 12.6207 3.02155 11.4423 1.84315C10.2639 0.664747 8.66616 0.00189054 6.99964 0ZM6.99964 4.00004C7.45172 4.00004 7.89364 4.1341 8.26953 4.38526C8.64542 4.63642 8.93839 4.9934 9.11139 5.41106C9.28439 5.82873 9.32966 6.28831 9.24146 6.7317C9.15327 7.17509 8.93557 7.58237 8.6159 7.90204C8.29624 8.2217 7.88896 8.4394 7.44557 8.5276C7.00218 8.61579 6.54259 8.57053 6.12493 8.39752C5.70727 8.22452 5.35028 7.93155 5.09912 7.55567C4.84796 7.17978 4.71391 6.73785 4.71391 6.28578C4.71391 5.67956 4.95472 5.09818 5.38338 4.66952C5.81204 4.24086 6.39343 4.00004 6.99964 4.00004Z" fill="white"/>
</svg>
